<svg xmlns="http://www.w3.org/2000/svg" width="1306" height="800" viewBox="0 0 523 320" font-family="Arial, sans-serif">
  <defs>
    <marker id="ah" viewBox="0 0 8 6" refX="8" refY="3"
      markerWidth="4" markerHeight="3" orient="auto">
      <path d="M0.5,0.5 L7,3 L0.5,5.5" fill="none" stroke="#94A3B8"
        stroke-width="1.2" stroke-linejoin="round" stroke-linecap="round"/>
    </marker>
    <filter id="shadow" x="-6%" y="-8%" width="112%" height="128%">
      <feDropShadow dx="0" dy="0.5" stdDeviation="0.8"
        flood-color="#000" flood-opacity="0.05"/>
    </filter>
  </defs>
  <rect width="523" height="320" fill="#F8F9FB" rx="3"/>
  <text x="261" y="11" text-anchor="middle" font-size="6" font-weight="700" fill="#1E293B">Tempo Zones Architecture</text>
  <rect x="186" y="16" width="150" height="10" rx="3" fill="#fff" stroke="#E2E5EA" stroke-width="0.4"/>
  <rect x="191" y="18.5" width="5" height="5" rx="2.5" fill="#fff" stroke="#E2E5EA" stroke-width="0.4"/>
  <text x="199" y="22.5" font-size="3.5" fill="#1E293B">Actor</text>
  <rect x="231" y="18.5" width="5" height="5" rx="1.5" fill="#fff" stroke="#E2E5EA" stroke-width="0.4"/>
  <rect x="232" y="19.5" width="0.8" height="3" rx="0.4" fill="#3B82F6"/>
  <text x="239" y="22.5" font-size="3.5" fill="#1E293B">Protocol</text>
  <rect x="279" y="18.5" width="5" height="5" rx="1.5" fill="#fff" stroke="#E2E5EA" stroke-width="0.4"/>
  <rect x="280" y="19.5" width="0.8" height="3" rx="0.4" fill="#F59E0B"/>
  <text x="287" y="22.5" font-size="3.5" fill="#1E293B">External</text>
  <rect x="20.0" y="146.0" width="482.5" height="102.0" rx="5" fill="#EDEEF2"/>
  <text x="499.5" y="151.0" text-anchor="end" font-size="3.5" fill="#94A3B8" font-weight="500">Zone predeploys</text>
  <rect x="20.0" y="84.0" width="482.5" height="40.0" rx="5" fill="#EDEEF2"/>
  <text x="499.5" y="89.0" text-anchor="end" font-size="3.5" fill="#94A3B8" font-weight="500">L1 (Tempo)</text>
  <path d="M124.1,46.0 C124.1,70.0 195.8,70.0 195.8,94.0" fill="none" stroke="#94A3B8" stroke-width="0.5" marker-end="url(#ah)"/>
  <path d="M124.1,46.0 C124.1,70.0 149.7,70.0 149.7,94.0" fill="none" stroke="#94A3B8" stroke-width="0.5" marker-end="url(#ah)"/>
  <path d="M149.7,94.0 Q149.8,104.0 175.3,156.0" fill="none" stroke="#94A3B8" stroke-width="0.5" marker-end="url(#ah)"/>
  <path d="M234.5,46.0 C234.5,70.0 195.8,70.0 195.8,94.0" fill="none" stroke="#94A3B8" stroke-width="0.5" marker-end="url(#ah)"/>
  <path d="M234.5,46.0 C234.5,70.0 346.8,70.0 346.8,94.0" fill="none" stroke="#94A3B8" stroke-width="0.5" marker-end="url(#ah)"/>
  <path d="M346.8,94.0 C346.8,125.0 459.1,125.0 459.1,156.0" fill="none" stroke="#94A3B8" stroke-width="0.5" marker-end="url(#ah)"/>
  <path d="M102.8,112.0 C120.5,126.0 144.1,126.0 161.8,114.0" fill="none" stroke="#94A3B8" stroke-width="0.5" marker-end="url(#ah)"/>
  <path d="M195.8,114.0 C195.8,135.0 277.3,135.0 277.3,156.0" fill="none" stroke="#94A3B8" stroke-width="0.5" marker-end="url(#ah)"/>
  <path d="M195.8,114.0 C195.8,135.0 372.1,135.0 372.1,156.0" fill="none" stroke="#94A3B8" stroke-width="0.5" marker-end="url(#ah)"/>
  <path d="M459.1,176.0 C459.1,197.0 456.8,197.0 456.8,218.0" fill="none" stroke="#94A3B8" stroke-width="0.5" marker-end="url(#ah)"/>
  <path d="M459.1,176.0 C459.1,197.0 352.4,197.0 352.4,218.0" fill="none" stroke="#94A3B8" stroke-width="0.5" marker-end="url(#ah)"/>
  <path d="M175.3,176.0 C175.3,197.0 352.4,197.0 352.4,218.0" fill="none" stroke="#94A3B8" stroke-width="0.5" marker-end="url(#ah)"/>
  <path d="M425.7,174.0 C362.3,188.0 277.6,188.0 214.1,176.0" fill="none" stroke="#94A3B8" stroke-width="0.5" marker-end="url(#ah)"/>
  <path d="M98.0,236.0 C195.4,254.0 325.4,254.0 422.8,238.0" fill="none" stroke="#94A3B8" stroke-width="0.5" marker-end="url(#ah)"/>
  <path d="M277.3,176.0 C277.3,197.0 224.0,197.0 224.0,218.0" fill="none" stroke="#94A3B8" stroke-width="0.5" marker-end="url(#ah)"/>
  <path d="M195.8,114.0 Q222.1,166.0 180.4,156.0" fill="none" stroke="#94A3B8" stroke-width="0.5" marker-end="url(#ah)"/>
  <path d="M180.4,156.0 L126.5,166.0 L156.0,228.0 L169.6,218.0" fill="none" stroke="#94A3B8" stroke-width="0.5" marker-end="url(#ah)"/>
  <path d="M169.6,218.0 Q154.0,228.0 158.8,280.0" fill="none" stroke="#94A3B8" stroke-width="0.5" marker-end="url(#ah)"/>
  <path d="M224.0,238.0 C224.0,259.0 268.0,259.0 268.0,280.0" fill="none" stroke="#94A3B8" stroke-width="0.5" marker-end="url(#ah)"/>
  <path d="M456.8,238.0 C456.8,259.0 414.4,259.0 414.4,280.0" fill="none" stroke="#94A3B8" stroke-width="0.5" marker-end="url(#ah)"/>
  <g filter="url(#shadow)">
    <rect x="74.5" y="32.0" width="99.2" height="14" rx="7" fill="#fff" stroke="#E2E5EA" stroke-width="0.5"/>
    <text x="124.1" y="40.8" text-anchor="middle" font-size="4.8" font-weight="600" fill="#1E293B">User</text>
  </g>
  <g filter="url(#shadow)">
    <rect x="195.7" y="32.0" width="77.6" height="14" rx="7" fill="#fff" stroke="#E2E5EA" stroke-width="0.5"/>
    <text x="234.5" y="40.8" text-anchor="middle" font-size="4.8" font-weight="600" fill="#1E293B">Sequencer</text>
  </g>
  <g filter="url(#shadow)">
    <rect x="30.0" y="94.0" width="72.8" height="20" rx="3" fill="#fff" stroke="#E2E5EA" stroke-width="0.5"/>
    <rect x="33.0" y="97.0" width="1.4" height="14" rx="0.6" fill="#3B82F6"/>
    <text x="66.4" y="103.5" text-anchor="middle" font-size="4.8" font-weight="600" fill="#1E293B">ZoneFactory</text>
    <text x="66.4" y="108.5" text-anchor="middle" font-size="3.5" fill="#64748B">Deployer</text>
  </g>
  <g filter="url(#shadow)">
    <rect x="161.8" y="94.0" width="68.0" height="20" rx="3" fill="#fff" stroke="#E2E5EA" stroke-width="0.5"/>
    <rect x="164.8" y="97.0" width="1.4" height="14" rx="0.6" fill="#3B82F6"/>
    <text x="195.8" y="103.5" text-anchor="middle" font-size="4.8" font-weight="600" fill="#1E293B">ZonePortal</text>
    <text x="195.8" y="108.5" text-anchor="middle" font-size="3.5" fill="#64748B">L1 escrow</text>
  </g>
  <g filter="url(#shadow)">
    <rect x="236.1" y="156.0" width="82.4" height="20" rx="3" fill="#fff" stroke="#E2E5EA" stroke-width="0.5"/>
    <rect x="239.1" y="159.0" width="1.4" height="14" rx="0.6" fill="#3B82F6"/>
    <text x="277.3" y="165.5" text-anchor="middle" font-size="4.8" font-weight="600" fill="#1E293B">ZoneMessenger</text>
    <text x="277.3" y="170.5" text-anchor="middle" font-size="3.5" fill="#64748B">Callback relay</text>
  </g>
  <g filter="url(#shadow)">
    <rect x="340.5" y="156.0" width="63.2" height="20" rx="3" fill="#fff" stroke="#E2E5EA" stroke-width="0.5"/>
    <rect x="343.5" y="159.0" width="1.4" height="14" rx="0.6" fill="#3B82F6"/>
    <text x="372.1" y="165.5" text-anchor="middle" font-size="4.8" font-weight="600" fill="#1E293B">Verifier</text>
    <text x="372.1" y="170.5" text-anchor="middle" font-size="3.5" fill="#64748B">Proof (stub)</text>
  </g>
  <g filter="url(#shadow)">
    <rect x="425.7" y="156.0" width="66.8" height="20" rx="3" fill="#fff" stroke="#E2E5EA" stroke-width="0.5"/>
    <rect x="428.7" y="159.0" width="1.4" height="14" rx="0.6" fill="#3B82F6"/>
    <text x="459.1" y="165.5" text-anchor="middle" font-size="4.8" font-weight="600" fill="#1E293B">ZoneInbox</text>
    <text x="459.1" y="170.5" text-anchor="middle" font-size="3.5" fill="#64748B">Mint deposits</text>
  </g>
  <g filter="url(#shadow)">
    <rect x="136.5" y="156.0" width="77.6" height="20" rx="3" fill="#fff" stroke="#E2E5EA" stroke-width="0.5"/>
    <rect x="139.5" y="159.0" width="1.4" height="14" rx="0.6" fill="#3B82F6"/>
    <text x="175.3" y="165.5" text-anchor="middle" font-size="4.8" font-weight="600" fill="#1E293B">ZoneOutbox</text>
    <text x="175.3" y="170.5" text-anchor="middle" font-size="3.5" fill="#64748B">Burn withdrawals</text>
  </g>
  <g filter="url(#shadow)">
    <rect x="422.8" y="218.0" width="68.0" height="20" rx="3" fill="#fff" stroke="#E2E5EA" stroke-width="0.5"/>
    <rect x="425.8" y="221.0" width="1.4" height="14" rx="0.6" fill="#3B82F6"/>
    <text x="456.8" y="227.5" text-anchor="middle" font-size="4.8" font-weight="600" fill="#1E293B">TempoState</text>
    <text x="456.8" y="232.5" text-anchor="middle" font-size="3.5" fill="#64748B">L1 mirror</text>
  </g>
  <g filter="url(#shadow)">
    <rect x="30.0" y="218.0" width="68.0" height="20" rx="3" fill="#fff" stroke="#E2E5EA" stroke-width="0.5"/>
    <rect x="33.0" y="221.0" width="1.4" height="14" rx="0.6" fill="#3B82F6"/>
    <text x="64.0" y="227.5" text-anchor="middle" font-size="4.8" font-weight="600" fill="#1E293B">ZoneConfig</text>
    <text x="64.0" y="232.5" text-anchor="middle" font-size="3.5" fill="#64748B">L1 reads</text>
  </g>
  <g filter="url(#shadow)">
    <rect x="304.0" y="218.0" width="96.8" height="20" rx="3" fill="#fff" stroke="#E2E5EA" stroke-width="0.5"/>
    <rect x="307.0" y="221.0" width="1.4" height="14" rx="0.6" fill="#3B82F6"/>
    <text x="352.4" y="227.5" text-anchor="middle" font-size="4.8" font-weight="600" fill="#1E293B">PrivateZoneToken</text>
    <text x="352.4" y="232.5" text-anchor="middle" font-size="3.5" fill="#64748B">TIP-20 precompile</text>
  </g>
  <g filter="url(#shadow)">
    <rect x="166.0" y="218.0" width="116.0" height="20" rx="3" fill="#fff" stroke="#E2E5EA" stroke-width="0.5"/>
    <rect x="169.0" y="221.0" width="1.4" height="14" rx="0.6" fill="#3B82F6"/>
    <text x="224.0" y="227.5" text-anchor="middle" font-size="4.8" font-weight="600" fill="#1E293B">SwapAndDepositRouter</text>
    <text x="224.0" y="232.5" text-anchor="middle" font-size="3.5" fill="#64748B">Cross-zone</text>
  </g>
  <g filter="url(#shadow)">
    <rect x="112.8" y="280.0" width="92.0" height="20" rx="3" fill="#fff" stroke="#E2E5EA" stroke-width="0.5"/>
    <rect x="115.8" y="283.0" width="1.4" height="14" rx="0.6" fill="#F59E0B"/>
    <text x="158.8" y="289.5" text-anchor="middle" font-size="4.8" font-weight="600" fill="#1E293B">TIP403 Registry</text>
    <text x="158.8" y="294.5" text-anchor="middle" font-size="3.5" fill="#64748B">Policy</text>
  </g>
  <g filter="url(#shadow)">
    <rect x="226.8" y="280.0" width="82.4" height="20" rx="3" fill="#fff" stroke="#E2E5EA" stroke-width="0.5"/>
    <rect x="229.8" y="283.0" width="1.4" height="14" rx="0.6" fill="#F59E0B"/>
    <text x="268.0" y="289.5" text-anchor="middle" font-size="4.8" font-weight="600" fill="#1E293B">StablecoinDEX</text>
    <text x="268.0" y="294.5" text-anchor="middle" font-size="3.5" fill="#64748B">Swap</text>
  </g>
  <g filter="url(#shadow)">
    <rect x="366.0" y="280.0" width="96.8" height="20" rx="3" fill="#fff" stroke="#E2E5EA" stroke-width="0.5"/>
    <rect x="369.0" y="283.0" width="1.4" height="14" rx="0.6" fill="#F59E0B"/>
    <text x="414.4" y="289.5" text-anchor="middle" font-size="4.8" font-weight="600" fill="#1E293B">TempoStateReader</text>
    <text x="414.4" y="294.5" text-anchor="middle" font-size="3.5" fill="#64748B">L1 storage / EIP-2935</text>
  </g>
  <rect x="149.5" y="65.0" width="20.8" height="6.0" rx="1" fill="#F8F9FB"/>
  <text x="159.9" y="70.0" font-size="4" fill="#1E293B" font-weight="500" text-anchor="middle">deposit</text>
  <rect x="137.9" y="120.5" width="44.8" height="6.0" rx="1" fill="#F8F9FB"/>
  <text x="160.3" y="125.5" font-size="4" fill="#1E293B" font-weight="500" text-anchor="middle">requestWithdrawal</text>
  <rect x="199.9" y="65.0" width="30.4" height="6.0" rx="1" fill="#F8F9FB"/>
  <text x="215.1" y="70.0" font-size="4" fill="#1E293B" font-weight="500" text-anchor="middle">submitBatch</text>
  <rect x="386.6" y="120.0" width="32.8" height="6.0" rx="1" fill="#F8F9FB"/>
  <text x="403.0" y="125.0" font-size="4" fill="#1E293B" font-weight="500" text-anchor="middle">advanceTempo</text>
  <rect x="118.3" y="129.0" width="28.0" height="6.0" rx="1" fill="#F8F9FB"/>
  <text x="132.3" y="134.0" font-size="4" fill="#1E293B" font-weight="500" text-anchor="middle">createZone</text>
  <rect x="220.2" y="130.0" width="32.8" height="6.0" rx="1" fill="#F8F9FB"/>
  <text x="236.6" y="135.0" font-size="4" fill="#1E293B" font-weight="500" text-anchor="middle">relayMessage</text>
  <rect x="274.8" y="130.0" width="18.4" height="6.0" rx="1" fill="#F8F9FB"/>
  <text x="284.0" y="135.0" font-size="4" fill="#1E293B" font-weight="500" text-anchor="middle">verify</text>
  <rect x="440.4" y="192.0" width="35.2" height="6.0" rx="1" fill="#EDEEF2"/>
  <text x="458.0" y="197.0" font-size="4" fill="#1E293B" font-weight="500" text-anchor="middle">finalizeTempo</text>
  <rect x="399.0" y="192.0" width="13.6" height="6.0" rx="1" fill="#EDEEF2"/>
  <text x="405.8" y="197.0" font-size="4" fill="#1E293B" font-weight="500" text-anchor="middle">mint</text>
  <rect x="257.1" y="192.0" width="13.6" height="6.0" rx="1" fill="#EDEEF2"/>
  <text x="263.9" y="197.0" font-size="4" fill="#1E293B" font-weight="500" text-anchor="middle">burn</text>
  <rect x="305.9" y="187.0" width="28.0" height="6.0" rx="1" fill="#EDEEF2"/>
  <text x="319.9" y="192.0" font-size="4" fill="#1E293B" font-weight="500" text-anchor="middle">bounceBack</text>
  <rect x="246.4" y="253.0" width="28.0" height="6.0" rx="1" fill="#F8F9FB"/>
  <text x="260.4" y="258.0" font-size="4" fill="#1E293B" font-weight="500" text-anchor="middle">read slots</text>
  <rect x="234.3" y="184.0" width="32.8" height="6.0" rx="1" fill="#EDEEF2"/>
  <text x="250.7" y="189.0" font-size="4" fill="#1E293B" font-weight="500" text-anchor="middle">onWithdrawal</text>
  <rect x="139.2" y="239.8" width="32.8" height="6.0" rx="1" fill="#EDEEF2"/>
  <text x="155.6" y="244.8" font-size="4" fill="#1E293B" font-weight="500" text-anchor="middle">policy check</text>
  <rect x="239.2" y="246.0" width="13.6" height="6.0" rx="1" fill="#F8F9FB"/>
  <text x="246.0" y="251.0" font-size="4" fill="#1E293B" font-weight="500" text-anchor="middle">swap</text>
  <rect x="418.0" y="254.0" width="35.2" height="6.0" rx="1" fill="#F8F9FB"/>
  <text x="435.6" y="259.0" font-size="4" fill="#1E293B" font-weight="500" text-anchor="middle">readStorageAt</text>
</svg>